<?xml version="1.0" encoding="utf-8"?>
<!-- Generator: Adobe Illustrator 19.0.0, SVG Export Plug-In . SVG Version: 6.00 Build 0)  -->
<svg version="1.1" id="Layer_1" xmlns="http://www.w3.org/2000/svg" xmlns:xlink="http://www.w3.org/1999/xlink" x="0px" y="0px"
	 width="64px" height="64px" viewBox="0 0 64 64" style="enable-background:new 0 0 64 64;" xml:space="preserve">
<style type="text/css">
	.st0{fill-rule:evenodd;clip-rule:evenodd;fill:#fff;}
</style>
<path class="st0" d="M19.4,0c1.2,0.1,1.8,1.2,2.5,1.9c1.8,1.8,3.6,3.6,5.4,5.3c5.8,5.8,11.7,11.6,17.5,17.4c1.6,1.6,3.2,3.2,4.8,4.8
	c0.8,0.8,1.8,1.4,2.2,2.5c-0.5,1.4-2.1,2.3-3,3.3c-2.3,2.3-4.7,4.6-7,7C34.5,49.5,27.2,56.8,20,64c-1.2,0-1.7-1-2.3-1.7
	c-1.8-1.8-3.6-3.6-5.4-5.4c0,0,0-0.1,0-0.1c6.2-6.1,12.4-12.3,18.5-18.4c1.2-1.2,5.9-5,5.9-6.7c-0.5-0.9-1.4-1.5-2-2.2
	c-1.5-1.5-3-3-4.4-4.4c-6-6-12-11.9-18-17.9c0,0,0-0.1,0-0.1C14.6,4.7,17,2.3,19.4,0z"/>
</svg>
